<mxfile host="app.diagrams.net" agent="Mozilla/5.0 (X11; Linux x86_64; rv:140.0) Gecko/20100101 Firefox/140.0" version="28.0.6">
  <diagram name="Pagina-1" id="ztOF_XK8uLvyLNqtx-sG">
    <mxGraphModel dx="1134" dy="1025" grid="1" gridSize="10" guides="1" tooltips="1" connect="1" arrows="1" fold="1" page="1" pageScale="1" pageWidth="850" pageHeight="1100" math="0" shadow="0">
      <root>
        <mxCell id="0" />
        <mxCell id="1" parent="0" />
        <mxCell id="TYrLCPMJrX0rA2hv0LJ_-5" style="rounded=0;orthogonalLoop=1;jettySize=auto;html=1;exitX=1;exitY=0.5;exitDx=0;exitDy=0;entryX=0;entryY=0;entryDx=0;entryDy=0;" edge="1" parent="1" source="TYrLCPMJrX0rA2hv0LJ_-1" target="TYrLCPMJrX0rA2hv0LJ_-4">
          <mxGeometry relative="1" as="geometry" />
        </mxCell>
        <mxCell id="TYrLCPMJrX0rA2hv0LJ_-1" value="&lt;div&gt;v&lt;sub&gt;i&lt;br&gt;&lt;/sub&gt;&lt;/div&gt;&lt;sub&gt;value:1&lt;/sub&gt;" style="ellipse;whiteSpace=wrap;html=1;aspect=fixed;fontSize=20;" vertex="1" parent="1">
          <mxGeometry x="110" y="250" width="80" height="80" as="geometry" />
        </mxCell>
        <mxCell id="TYrLCPMJrX0rA2hv0LJ_-6" style="rounded=0;orthogonalLoop=1;jettySize=auto;html=1;exitX=1;exitY=0.5;exitDx=0;exitDy=0;entryX=0;entryY=1;entryDx=0;entryDy=0;" edge="1" parent="1" source="TYrLCPMJrX0rA2hv0LJ_-2" target="TYrLCPMJrX0rA2hv0LJ_-4">
          <mxGeometry relative="1" as="geometry" />
        </mxCell>
        <mxCell id="TYrLCPMJrX0rA2hv0LJ_-2" value="&lt;div&gt;v&lt;sub&gt;k&lt;br&gt;&lt;/sub&gt;&lt;/div&gt;&lt;sub&gt;value:0.5&lt;/sub&gt;" style="ellipse;whiteSpace=wrap;html=1;aspect=fixed;fontSize=20;" vertex="1" parent="1">
          <mxGeometry x="110" y="440" width="80" height="80" as="geometry" />
        </mxCell>
        <mxCell id="TYrLCPMJrX0rA2hv0LJ_-4" value="v&lt;sub&gt;s&lt;/sub&gt;" style="ellipse;whiteSpace=wrap;html=1;aspect=fixed;fontSize=20;" vertex="1" parent="1">
          <mxGeometry x="280" y="350" width="80" height="80" as="geometry" />
        </mxCell>
      </root>
    </mxGraphModel>
  </diagram>
</mxfile>
